<svg xmlns="http://www.w3.org/2000/svg"  viewBox="0 0 48 48" width="100px" height="100px"><path d="M 23.976562 2.9785156 A 1.50015 1.50015 0 0 0 22.5 4.5 L 22.5 8.0585938 C 21.614196 8.3229331 20.809782 8.7222961 20.253906 9.3476562 C 19.395664 10.313179 19 11.541667 19 12.75 C 19 13.695027 19.32381 14.616807 19.839844 15.451172 L 13.943359 27 L 11.5 27 A 1.50015 1.50015 0 1 0 11.5 30 L 12.412109 30 L 8.1640625 38.318359 A 1.50015 1.50015 0 0 0 8 39 L 8 41.5 A 1.50015 1.50015 0 1 0 11 41.5 L 11 39.361328 L 15.779297 30 L 22.5 30 L 22.5 30.5 A 1.50015 1.50015 0 1 0 25.5 30.5 L 25.5 30 L 32.220703 30 L 37 39.361328 L 37 41.5 A 1.50015 1.50015 0 1 0 40 41.5 L 40 39 A 1.50015 1.50015 0 0 0 39.835938 38.318359 L 35.587891 30 L 36.5 30 A 1.50015 1.50015 0 1 0 36.5 27 L 34.056641 27 L 28.160156 15.451172 C 28.67619 14.616807 29 13.695027 29 12.75 C 29 11.541667 28.604336 10.313179 27.746094 9.3476562 C 27.190218 8.7222961 26.385804 8.3229332 25.5 8.0585938 L 25.5 4.5 A 1.50015 1.50015 0 0 0 23.976562 2.9785156 z M 24 10.75 C 24.791666 10.75 25.195482 10.992867 25.503906 11.339844 C 25.81233 11.686821 26 12.208333 26 12.75 C 26 13.291667 25.81233 13.813179 25.503906 14.160156 C 25.195482 14.507133 24.791666 14.75 24 14.75 C 23.208334 14.75 22.804518 14.507133 22.496094 14.160156 C 22.18767 13.813179 22 13.291667 22 12.75 C 22 12.208333 22.18767 11.686821 22.496094 11.339844 C 22.804518 10.992867 23.208334 10.75 24 10.75 z M 22.222656 17.384766 C 22.776801 17.58324 23.356462 17.75 24 17.75 C 24.643538 17.75 25.223199 17.58324 25.777344 17.384766 L 30.6875 27 L 25.5 27 L 25.5 26.5 A 1.50015 1.50015 0 1 0 22.5 26.5 L 22.5 27 L 17.3125 27 L 22.222656 17.384766 z"/></svg>