<svg xmlns="http://www.w3.org/2000/svg"  viewBox="0 0 48 48" width="100px" height="100px"><path d="M 30.15625 4.0097656 C 28.745504 4.0097656 27.335246 4.5436602 26.267578 5.6113281 L 5.6113281 26.267578 C 3.4759922 28.402914 3.4759922 31.909586 5.6113281 34.044922 L 13.955078 42.388672 C 16.090414 44.524008 19.597086 44.524008 21.732422 42.388672 L 42.390625 21.732422 C 44.525335 19.597712 44.523813 16.090118 42.388672 13.955078 L 34.044922 5.6113281 C 32.977254 4.5436602 31.566996 4.0097656 30.15625 4.0097656 z M 30.15625 6.9902344 C 30.793004 6.9902344 31.429496 7.2380898 31.923828 7.7324219 L 40.267578 16.076172 C 41.257285 17.065246 41.256469 18.620485 40.267578 19.609375 L 19.611328 40.267578 C 18.622664 41.256242 17.064836 41.256242 16.076172 40.267578 L 7.7324219 31.923828 C 6.7437578 30.935164 6.7437578 29.377336 7.7324219 28.388672 L 9.5 26.621094 L 11.439453 28.560547 A 1.50015 1.50015 0 1 0 13.560547 26.439453 L 11.621094 24.5 L 14.5 21.621094 L 18.439453 25.560547 A 1.50015 1.50015 0 1 0 20.560547 23.439453 L 16.621094 19.5 L 19.5 16.621094 L 21.439453 18.560547 A 1.50015 1.50015 0 1 0 23.560547 16.439453 L 21.621094 14.5 L 24.5 11.621094 L 28.439453 15.560547 A 1.50015 1.50015 0 1 0 30.560547 13.439453 L 26.621094 9.5 L 28.388672 7.7324219 C 28.883004 7.2380898 29.519496 6.9902344 30.15625 6.9902344 z"/></svg>