<svg xmlns="http://www.w3.org/2000/svg"  viewBox="0 0 48 48" width="100px" height="100px"><path d="M 7.4765625 5.9785156 A 1.50015 1.50015 0 0 0 6 7.5 L 6 40.5 A 1.50015 1.50015 0 1 0 9 40.5 L 9 25.121094 L 15.439453 31.560547 A 1.50015 1.50015 0 1 0 17.560547 29.439453 L 13.621094 25.5 L 34.378906 25.5 L 30.439453 29.439453 A 1.50015 1.50015 0 1 0 32.560547 31.560547 L 39 25.121094 L 39 40.5 A 1.50015 1.50015 0 1 0 42 40.5 L 42 7.5 A 1.50015 1.50015 0 1 0 39 7.5 L 39 22.878906 L 32.560547 16.439453 A 1.50015 1.50015 0 1 0 30.439453 18.560547 L 34.378906 22.5 L 13.621094 22.5 L 17.560547 18.560547 A 1.50015 1.50015 0 1 0 15.439453 16.439453 L 9 22.878906 L 9 7.5 A 1.50015 1.50015 0 0 0 7.4765625 5.9785156 z"/></svg>